<svg width="30" height="30" viewBox="0 0 30 30" fill="none" xmlns="http://www.w3.org/2000/svg">
<rect width="17" height="21" transform="translate(7 4)" fill="black"/>
<path d="M15 0C6.71531 0 0 6.71531 0 15C0 23.2847 6.71625 30 15 30C23.2847 30 30 23.2847 30 15C30 6.71531 23.2847 0 15 0ZM16.9378 17.775C17.25 18.0459 17.4928 19.0013 17.4928 19.44V23.325H15.2756H13.0556C13.0556 23.325 13.0622 22.0078 13.0556 21.105C10.0181 21.7584 9.17062 19.44 9.17062 19.44C8.61562 18.33 8.06062 17.775 8.06062 17.775C6.95062 17.1159 8.06062 17.22 8.06062 17.22C9.17062 17.22 9.72562 18.33 9.72562 18.33C10.6997 19.9838 12.4331 19.7175 13.0556 19.44C13.0556 18.885 13.2984 18.0459 13.6106 17.775C11.1862 17.5022 9.16875 16.11 9.16875 13.335C9.16875 10.56 9.72562 10.005 10.2806 9.45C10.1681 9.17625 9.70406 8.16562 10.2975 6.675C10.2975 6.675 11.3878 6.675 12.4978 8.34C13.0481 7.78969 14.7178 7.785 15.2737 7.785C15.8278 7.785 17.4984 7.78969 18.0478 8.34C19.1578 6.675 20.2509 6.675 20.2509 6.675C20.8444 8.16562 20.3803 9.17625 20.2678 9.45C20.8228 10.005 21.3778 10.56 21.3778 13.335C21.3787 16.11 19.3631 17.5022 16.9378 17.775Z" fill="white"/>
</svg>
