<svg width="33" height="33" viewBox="0 0 33 33" fill="none" xmlns="http://www.w3.org/2000/svg">
<rect width="17" height="17" transform="translate(8 9)" fill="black"/>
<path d="M16.3545 19.9048C17.7045 19.9048 18.7989 18.8103 18.7989 17.4603C18.7989 16.1103 17.7045 15.0159 16.3545 15.0159C15.0045 15.0159 13.91 16.1103 13.91 17.4603C13.91 18.8103 15.0045 19.9048 16.3545 19.9048Z" fill="white"/>
<path d="M19.5556 11.1746H13.1534C12.2222 11.1746 11.4074 11.4656 10.8836 11.9894C10.3598 12.5132 10.0688 13.328 10.0688 14.2592V20.6613C10.0688 21.5925 10.3598 22.4074 10.9418 22.9894C11.5238 23.5132 12.2804 23.8042 13.2116 23.8042H19.5556C20.4868 23.8042 21.3016 23.5132 21.8254 22.9894C22.4074 22.4656 22.6984 21.6507 22.6984 20.7195V14.3174C22.6984 13.3862 22.4074 12.6296 21.8836 12.0476C21.3016 11.4656 20.545 11.1746 19.5556 11.1746ZM16.3545 21.4179C14.1429 21.4179 12.3968 19.6137 12.3968 17.4603C12.3968 15.2486 14.2011 13.5026 16.3545 13.5026C18.5079 13.5026 20.3704 15.2486 20.3704 17.4603C20.3704 19.6719 18.5661 21.4179 16.3545 21.4179ZM20.4868 14.2592C19.963 14.2592 19.5556 13.8518 19.5556 13.328C19.5556 12.8042 19.963 12.3968 20.4868 12.3968C21.0106 12.3968 21.418 12.8042 21.418 13.328C21.418 13.8518 21.0106 14.2592 20.4868 14.2592Z" fill="white"/>
<path d="M16.4709 3.02637C8.55556 3.02637 2.15344 9.42848 2.15344 17.3438C2.15344 25.2592 8.55556 31.6613 16.4709 31.6613C24.3862 31.6613 30.7884 25.2592 30.7884 17.3438C30.8466 9.42848 24.3862 3.02637 16.4709 3.02637ZM24.0952 20.7195C24.0952 22.0581 23.6296 23.2221 22.8148 24.0369C22 24.8518 20.836 25.2592 19.5556 25.2592H13.2116C11.9312 25.2592 10.7672 24.8518 9.95238 24.0369C9.07937 23.2221 8.67196 22.0581 8.67196 20.7195V14.3174C8.67196 11.6401 10.4762 9.77769 13.2116 9.77769H19.6138C20.9524 9.77769 22.0582 10.2433 22.873 11.0581C23.6878 11.8729 24.0952 12.9787 24.0952 14.3174V20.7195V20.7195Z" fill="white"/>
</svg>
