<svg width="33" height="33" viewBox="0 0 33 33" fill="none" xmlns="http://www.w3.org/2000/svg">
<rect width="18" height="21" transform="translate(8 7)" fill="black"/>
<path d="M16.5009 3.00171C8.58454 3.00171 2.16708 9.42033 2.16708 17.3355C2.16708 25.2518 8.58454 31.6681 16.5009 31.6681C24.4172 31.6681 30.8335 25.2518 30.8335 17.3355C30.8335 9.42033 24.4166 3.00171 16.5009 3.00171ZM23.721 14.4454C23.7286 14.6003 23.7315 14.7557 23.7315 14.9129C23.7315 19.6865 20.0981 25.1901 13.4542 25.1901C11.4146 25.1901 9.51529 24.5923 7.91689 23.5678C8.19979 23.601 8.48675 23.6179 8.77838 23.6179C10.4711 23.6179 12.0287 23.0405 13.2645 22.0719C11.6841 22.0422 10.3506 20.9974 9.89074 19.5625C10.1108 19.6056 10.3372 19.6271 10.57 19.6271C10.8995 19.6271 11.2185 19.5841 11.5217 19.5008C9.86862 19.169 8.62354 17.708 8.62354 15.9594C8.62354 15.9437 8.62354 15.9286 8.62412 15.9129C9.11075 16.1835 9.6678 16.3459 10.2604 16.3652C9.29061 15.7161 8.65323 14.6119 8.65323 13.3581C8.65323 12.6963 8.83135 12.0752 9.14218 11.542C10.9239 13.7272 13.5858 15.1655 16.5882 15.3157C16.5265 15.052 16.4945 14.7755 16.4945 14.4926C16.4945 12.4984 18.1115 10.8808 20.1069 10.8808C21.1459 10.8808 22.0842 11.3197 22.7431 12.0211C23.5662 11.8598 24.3392 11.5583 25.0371 11.1445C24.7664 11.9885 24.1942 12.6963 23.448 13.1427C24.1797 13.0554 24.8759 12.861 25.5231 12.5741C25.04 13.2999 24.4271 13.9361 23.721 14.4454Z" fill="white"/>
</svg>
